# xmcd
#
# Track frame offsets:
#	150
#	16334
#	35757
#	47277
#	61814
#	79998
#	91712
#	105753
#	122495
#	133242
#	145760
#	158296
#	175757
#	192951
#	206064
#	220756
#	236812
#	248227
#	259002
#
# Disc length: 3677 seconds
#
# Revision: 0
# Processed by: cddbd v1.5.2PL0 Copyright (c) Steve Scherf et al.
# Submitted via: audiograbber 1.83.01
#
DISCID=f50e5b13
DTITLE=Amy Winehouse - Back To Black
DYEAR=2007
DGENRE=
TTITLE0=Rehab
TTITLE1=You Know I'm No Good
TTITLE2=Me and Mr Jones
TTITLE3=Just Friends
TTITLE4=Back To Black
TTITLE5=Love Is A Losing Game
TTITLE6=Tears Dry On Their Own
TTITLE7=Wake Up Alone
TTITLE8=Some Unholy War
TTITLE9=He Can Only Hold Her
TTITLE10=Addicted
TTITLE11=Valerie
TTITLE12=Cupid
TTITLE13=Monkey Man
TTITLE14=Some Unholy War (DownBeat)
TTITLE15=Hey Little Rich Girl
TTITLE16=You're Wondering Now
TTITLE17=To Know Him Is To Love Him
TTITLE18=Love Is A Losing Game (Original Demo)
EXTD=
EXTT0=
EXTT1=
EXTT2=
EXTT3=
EXTT4=
EXTT5=
EXTT6=
EXTT7=
EXTT8=
EXTT9=
EXTT10=
EXTT11=
EXTT12=
EXTT13=
EXTT14=
EXTT15=
EXTT16=
EXTT17=
EXTT18=
PLAYORDER=
